<?xml version="1.0" encoding="UTF-8" standalone="no"?>
<!-- Created with Inkscape (http://www.inkscape.org/) -->

<svg
   xmlns:dc="http://purl.org/dc/elements/1.1/"
   xmlns:cc="http://creativecommons.org/ns#"
   xmlns:rdf="http://www.w3.org/1999/02/22-rdf-syntax-ns#"
   xmlns:svg="http://www.w3.org/2000/svg"
   xmlns="http://www.w3.org/2000/svg"
   xmlns:sodipodi="http://sodipodi.sourceforge.net/DTD/sodipodi-0.dtd"
   xmlns:inkscape="http://www.inkscape.org/namespaces/inkscape"
   id="svg2"
   version="1.1"
   inkscape:version="0.48.4 r9939"
   width="1200"
   height="675"
   xml:space="preserve"
   sodipodi:docname="stairs.pdf"><metadata
     id="metadata8"><rdf:RDF><cc:Work
         rdf:about=""><dc:format>image/svg+xml</dc:format><dc:type
           rdf:resource="http://purl.org/dc/dcmitype/StillImage" /><dc:title></dc:title></cc:Work></rdf:RDF></metadata><defs
     id="defs6"><clipPath
       clipPathUnits="userSpaceOnUse"
       id="clipPath16"><path
         d="m 0,1.2207e-4 960,0 0,539.99999793 -960,0 L 0,1.2207e-4 z"
         clip-rule="evenodd"
         id="path18" /></clipPath><clipPath
       clipPathUnits="userSpaceOnUse"
       id="clipPath54"><path
         d="M 1.4305e-5,0 960.00001,0 l 0,540 -959.999995695,0 0,-540 z"
         clip-rule="evenodd"
         id="path56" /></clipPath><clipPath
       clipPathUnits="userSpaceOnUse"
       id="clipPath66"><path
         d="M 1.4305e-5,0 960.00001,0 l 0,540 -959.999995695,0 0,-540 z"
         clip-rule="evenodd"
         id="path68" /></clipPath><clipPath
       clipPathUnits="userSpaceOnUse"
       id="clipPath78"><path
         d="M 1.4305e-5,0 960.00001,0 l 0,540 -959.999995695,0 0,-540 z"
         clip-rule="evenodd"
         id="path80" /></clipPath><clipPath
       clipPathUnits="userSpaceOnUse"
       id="clipPath90"><path
         d="M 1.4305e-5,0 960.00001,0 l 0,540 -959.999995695,0 0,-540 z"
         clip-rule="evenodd"
         id="path92" /></clipPath><clipPath
       clipPathUnits="userSpaceOnUse"
       id="clipPath102"><path
         d="M 1.4305e-5,0 960.00001,0 l 0,540 -959.999995695,0 0,-540 z"
         clip-rule="evenodd"
         id="path104" /></clipPath><clipPath
       clipPathUnits="userSpaceOnUse"
       id="clipPath114"><path
         d="M 1.4305e-5,0 960.00001,0 l 0,540 -959.999995695,0 0,-540 z"
         clip-rule="evenodd"
         id="path116" /></clipPath><clipPath
       clipPathUnits="userSpaceOnUse"
       id="clipPath126"><path
         d="M 1.4305e-5,0 960.00001,0 l 0,540 -959.999995695,0 0,-540 z"
         clip-rule="evenodd"
         id="path128" /></clipPath><clipPath
       clipPathUnits="userSpaceOnUse"
       id="clipPath138"><path
         d="M 1.4305e-5,0 960.00001,0 l 0,540 -959.999995695,0 0,-540 z"
         clip-rule="evenodd"
         id="path140" /></clipPath><clipPath
       clipPathUnits="userSpaceOnUse"
       id="clipPath150"><path
         d="M 1.4305e-5,0 960.00001,0 l 0,540 -959.999995695,0 0,-540 z"
         clip-rule="evenodd"
         id="path152" /></clipPath><clipPath
       clipPathUnits="userSpaceOnUse"
       id="clipPath162"><path
         d="M 1.4305e-5,0 960.00001,0 l 0,540 -959.999995695,0 0,-540 z"
         clip-rule="evenodd"
         id="path164" /></clipPath><clipPath
       clipPathUnits="userSpaceOnUse"
       id="clipPath174"><path
         d="M 1.4305e-5,0 960.00001,0 l 0,540 -959.999995695,0 0,-540 z"
         clip-rule="evenodd"
         id="path176" /></clipPath><clipPath
       clipPathUnits="userSpaceOnUse"
       id="clipPath186"><path
         d="M 1.4305e-5,0 960.00001,0 l 0,540 -959.999995695,0 0,-540 z"
         clip-rule="evenodd"
         id="path188" /></clipPath><clipPath
       clipPathUnits="userSpaceOnUse"
       id="clipPath198"><path
         d="M 1.4305e-5,0 960.00001,0 l 0,540 -959.999995695,0 0,-540 z"
         clip-rule="evenodd"
         id="path200" /></clipPath><clipPath
       clipPathUnits="userSpaceOnUse"
       id="clipPath210"><path
         d="M 1.4305e-5,0 960.00001,0 l 0,540 -959.999995695,0 0,-540 z"
         clip-rule="evenodd"
         id="path212" /></clipPath><clipPath
       clipPathUnits="userSpaceOnUse"
       id="clipPath222"><path
         d="M 1.4305e-5,0 960.00001,0 l 0,540 -959.999995695,0 0,-540 z"
         clip-rule="evenodd"
         id="path224" /></clipPath><clipPath
       clipPathUnits="userSpaceOnUse"
       id="clipPath234"><path
         d="M 1.4305e-5,0 960.00001,0 l 0,540 -959.999995695,0 0,-540 z"
         clip-rule="evenodd"
         id="path236" /></clipPath><clipPath
       clipPathUnits="userSpaceOnUse"
       id="clipPath246"><path
         d="M 1.4305e-5,0 960.00001,0 l 0,540 -959.999995695,0 0,-540 z"
         clip-rule="evenodd"
         id="path248" /></clipPath><clipPath
       clipPathUnits="userSpaceOnUse"
       id="clipPath258"><path
         d="M 1.4305e-5,0 960.00001,0 l 0,540 -959.999995695,0 0,-540 z"
         clip-rule="evenodd"
         id="path260" /></clipPath><clipPath
       clipPathUnits="userSpaceOnUse"
       id="clipPath270"><path
         d="M 1.4305e-5,0 960.00001,0 l 0,540 -959.999995695,0 0,-540 z"
         clip-rule="evenodd"
         id="path272" /></clipPath><clipPath
       clipPathUnits="userSpaceOnUse"
       id="clipPath288"><path
         d="M 1.4305e-5,0 960.00001,0 l 0,540 -959.999995695,0 0,-540 z"
         clip-rule="evenodd"
         id="path290" /></clipPath><clipPath
       clipPathUnits="userSpaceOnUse"
       id="clipPath300"><path
         d="M 1.4305e-5,0 960.00001,0 l 0,540 -959.999995695,0 0,-540 z"
         clip-rule="evenodd"
         id="path302" /></clipPath><clipPath
       clipPathUnits="userSpaceOnUse"
       id="clipPath312"><path
         d="M 1.4305e-5,0 960.00001,0 l 0,540 -959.999995695,0 0,-540 z"
         clip-rule="evenodd"
         id="path314" /></clipPath><clipPath
       clipPathUnits="userSpaceOnUse"
       id="clipPath324"><path
         d="M 1.4305e-5,0 960.00001,0 l 0,540 -959.999995695,0 0,-540 z"
         clip-rule="evenodd"
         id="path326" /></clipPath><clipPath
       clipPathUnits="userSpaceOnUse"
       id="clipPath336"><path
         d="M 1.4305e-5,0 960.00001,0 l 0,540 -959.999995695,0 0,-540 z"
         clip-rule="evenodd"
         id="path338" /></clipPath><clipPath
       clipPathUnits="userSpaceOnUse"
       id="clipPath348"><path
         d="M 1.4305e-5,0 960.00001,0 l 0,540 -959.999995695,0 0,-540 z"
         clip-rule="evenodd"
         id="path350" /></clipPath><clipPath
       clipPathUnits="userSpaceOnUse"
       id="clipPath360"><path
         d="M 1.4305e-5,0 960.00001,0 l 0,540 -959.999995695,0 0,-540 z"
         clip-rule="evenodd"
         id="path362" /></clipPath><clipPath
       clipPathUnits="userSpaceOnUse"
       id="clipPath372"><path
         d="M 1.4305e-5,0 960.00001,0 l 0,540 -959.999995695,0 0,-540 z"
         clip-rule="evenodd"
         id="path374" /></clipPath><clipPath
       clipPathUnits="userSpaceOnUse"
       id="clipPath384"><path
         d="M 1.4305e-5,0 960.00001,0 l 0,540 -959.999995695,0 0,-540 z"
         clip-rule="evenodd"
         id="path386" /></clipPath><clipPath
       clipPathUnits="userSpaceOnUse"
       id="clipPath396"><path
         d="M 1.4305e-5,0 960.00001,0 l 0,540 -959.999995695,0 0,-540 z"
         clip-rule="evenodd"
         id="path398" /></clipPath><clipPath
       clipPathUnits="userSpaceOnUse"
       id="clipPath408"><path
         d="M 1.4305e-5,0 960.00001,0 l 0,540 -959.999995695,0 0,-540 z"
         clip-rule="evenodd"
         id="path410" /></clipPath></defs><sodipodi:namedview
     pagecolor="#ffffff"
     bordercolor="#666666"
     borderopacity="1"
     objecttolerance="10"
     gridtolerance="10"
     guidetolerance="10"
     inkscape:pageopacity="0"
     inkscape:pageshadow="2"
     inkscape:window-width="1680"
     inkscape:window-height="1002"
     id="namedview4"
     showgrid="false"
     inkscape:zoom="0.7613183"
     inkscape:cx="491.69277"
     inkscape:cy="258.13775"
     inkscape:window-x="0"
     inkscape:window-y="26"
     inkscape:window-maximized="1"
     inkscape:current-layer="g10" /><g
     id="g10"
     inkscape:groupmode="layer"
     inkscape:label="stairs"
     transform="matrix(1.25,0,0,-1.25,0,675)"><g
       id="g12"><g
         id="g14"
         clip-path="url(#clipPath16)"><path
           d="m 0,6.1035e-5 960,0 0,539.999998965 -960,0 L 0,6.1035e-5 z"
           style="fill:#ffffff;fill-opacity:1;fill-rule:evenodd;stroke:none"
           id="path20" /></g></g><path
       d="m 13.08,99.84 90.42,0 0,-6 -90.42,0 0,6 z m 0,-9 c -3.3137,0 -6,2.686 -6,6 0,3.31 2.6863,6 6,6 3.314,0 6,-2.69 6,-6 0,-3.314 -2.686,-6 -6,-6 z m 90.42,12 c 3.31,0 6,-2.69 6,-6 0,-3.314 -2.69,-6 -6,-6 -3.32,0 -6.001,2.686 -6.001,6 0,3.31 2.681,6 6.001,6 z"
       style="fill:#000000;fill-opacity:1;fill-rule:nonzero;stroke:none"
       id="path22" /><path
       d="m 104.04,156.48 113.58,0 0,-6 -113.58,0 0,6 z m 0,-9 c -3.31,0 -6,2.69 -6,6 0,3.31 2.69,6 6,6 3.31,0 6,-2.69 6,-6 0,-3.31 -2.69,-6 -6,-6 z m 113.58,12 c 3.32,0 6,-2.69 6,-6 0,-3.31 -2.68,-6 -6,-6 -3.31,0 -6,2.69 -6,6 0,3.31 2.69,6 6,6 z"
       style="fill:#000000;fill-opacity:1;fill-rule:nonzero;stroke:none"
       id="path24" /><path
       d="m 103.8,96.55 0.28,56.93"
       style="fill:none;stroke:#000000;stroke-opacity:1;stroke-width:6;stroke-linecap:butt;stroke-linejoin:miter;stroke-miterlimit:10;stroke-dasharray:none"
       id="path26" /><path
       d="m 217.96,153.55 -0.28,57.77"
       style="fill:none;stroke:#000000;stroke-opacity:1;stroke-width:6;stroke-linecap:butt;stroke-linejoin:miter;stroke-miterlimit:10;stroke-dasharray:none"
       id="path28" /><path
       d="m 217.69,208.04 117.21,0.28 -0.02,6 -117.21,-0.28 0.02,-6 z m -0.02,9 c -3.32,-0.01 -6,-2.7 -5.99,-6.01 0.01,-3.32 2.7,-6 6.01,-5.99 3.32,0.01 6,2.7 5.99,6.02 -0.01,3.31 -2.7,5.99 -6.01,5.98 z M 334.9,205.32 c 3.32,0.01 6,2.7 5.99,6.01 -0.01,3.32 -2.7,6 -6.02,5.99 -3.31,-0.01 -5.99,-2.7 -5.98,-6.01 0.01,-3.32 2.7,-6 6.01,-5.99 z"
       style="fill:#000000;fill-opacity:1;fill-rule:nonzero;stroke:none"
       id="path30" /><path
       d="m 334.48,211.51 -0.28,57.77"
       style="fill:none;stroke:#000000;stroke-opacity:1;stroke-width:6;stroke-linecap:butt;stroke-linejoin:miter;stroke-miterlimit:10;stroke-dasharray:none"
       id="path32" /><path
       d="m 334.92,272.28 118.88,0 0,-6 -118.88,0 0,6 z m 0,-9 c -3.31,0 -6,2.69 -6,6 0,3.31 2.69,6 6,6 3.31,0 6,-2.69 6,-6 0,-3.31 -2.69,-6 -6,-6 z m 118.88,12 c 3.32,0 6,-2.69 6,-6 0,-3.31 -2.68,-6 -6,-6 -3.31,0 -6,2.69 -6,6 0,3.31 2.69,6 6,6 z"
       style="fill:#000000;fill-opacity:1;fill-rule:nonzero;stroke:none"
       id="path34" /><path
       d="m 453.72,330.84 128.09,0 0,-6 -128.09,0 0,6 z m 0,-9 c -3.31,0 -6,2.69 -6,6 0,3.31 2.69,6 6,6 3.31,0 6,-2.69 6,-6 0,-3.31 -2.69,-6 -6,-6 z m 128.09,12 c 3.32,0 6,-2.69 6,-6 0,-3.31 -2.68,-6 -6,-6 -3.31,0 -6,2.69 -6,6 0,3.31 2.69,6 6,6 z"
       style="fill:#000000;fill-opacity:1;fill-rule:nonzero;stroke:none"
       id="path36" /><path
       d="m 454,269.59 -0.28,57.77"
       style="fill:none;stroke:#000000;stroke-opacity:1;stroke-width:6;stroke-linecap:butt;stroke-linejoin:miter;stroke-miterlimit:10;stroke-dasharray:none"
       id="path38" /><path
       d="m 583.84,328.15 -0.28,57.77"
       style="fill:none;stroke:#000000;stroke-opacity:1;stroke-width:6;stroke-linecap:butt;stroke-linejoin:miter;stroke-miterlimit:10;stroke-dasharray:none"
       id="path40" /><path
       d="m 583.57,388.32 114.28,-0.28 -0.02,-6 -114.28,0.28 0.02,6 z m -0.02,-9 c -3.32,0.01 -6,2.7 -5.99,6.01 0.01,3.32 2.7,6 6.01,5.99 3.32,-0.01 6,-2.7 5.99,-6.01 -0.01,-3.32 -2.7,-6 -6.01,-5.99 z m 114.3,11.72 c 3.32,-0.01 6,-2.7 5.99,-6.01 -0.01,-3.32 -2.7,-6 -6.02,-5.99 -3.31,0.01 -5.99,2.7 -5.98,6.02 0.01,3.31 2.7,5.99 6.01,5.98 z"
       style="fill:#000000;fill-opacity:1;fill-rule:nonzero;stroke:none"
       id="path42" /><g
       id="g44"><path
         d="m 700.08,156.5 0,289.78"
         style="fill:none;stroke:#000000;stroke-opacity:1;stroke-width:6;stroke-linecap:butt;stroke-linejoin:miter;stroke-miterlimit:10;stroke-dasharray:6,6;stroke-dashoffset:0"
         id="path46" /></g><path
       d="m 700.08,449.28 128.09,0 0,-6 -128.09,0 0,6 z m 0,-9 c -3.31,0 -6,2.69 -6,6 0,3.31 2.69,6 6,6 3.31,0 6,-2.69 6,-6 0,-3.31 -2.69,-6 -6,-6 z m 128.09,12 c 3.32,0 6,-2.69 6,-6 0,-3.31 -2.68,-6 -6,-6 -3.31,0 -6,2.69 -6,6 0,3.31 2.69,6 6,6 z"
       style="fill:#000000;fill-opacity:1;fill-rule:nonzero;stroke:none"
       id="path48" /><g
       id="g50"><g
         id="g52"
         clip-path="url(#clipPath54)"><text
           transform="matrix(1,0,0,-1,114.31,132.43)"
           id="text58"><tspan
             style="fill:#000000;fill-opacity:1;fill-rule:nonzero;stroke:none;font-family:Calibri;font-variant:normal;font-weight:normal;font-size:18;writing-mode:lr;-inkscape-font-specification:Calibri"
             x="0 9.126 13.554 22.68 31.806 40.932 45.09 50.544 59.616 68.742 77.868 90.738"
             y="0"
             sodipodi:role="line"
             id="tspan60">2,369 (100%)</tspan></text>
</g></g><g
       id="g62"><g
         id="g64"
         clip-path="url(#clipPath66)"><text
           transform="matrix(1,0,0,-1,132.67,110.83)"
           id="text70"><tspan
             style="fill:#000000;fill-opacity:1;fill-rule:nonzero;stroke:none;font-family:Calibri;font-variant:normal;font-weight:normal;font-size:18;writing-mode:lr;-inkscape-font-specification:Calibri"
             x="0 9.45 18.072 25.182 29.25 36.468 48.384 59.382"
             y="0"
             sodipodi:role="line"
             id="tspan72">has LOD </tspan></text>
</g></g><g
       id="g74"><g
         id="g76"
         clip-path="url(#clipPath78)"><text
           transform="matrix(1,0,0,-1,112.15,89.232)"
           id="text82"><tspan
             style="fill:#000000;fill-opacity:1;fill-rule:nonzero;stroke:none;font-family:Calibri;font-variant:normal;font-weight:normal;font-size:18;writing-mode:lr;-inkscape-font-specification:Calibri"
             x="0 15.39 19.926 35.316 44.046 48.114 54.144 62.298 71.748 80.748 84.816 94.302 100.584"
             y="0"
             sodipodi:role="line"
             id="tspan84">MIME type or </tspan></text>
</g></g><g
       id="g86"><g
         id="g88"
         clip-path="url(#clipPath90)"><text
           transform="matrix(1,0,0,-1,115.63,67.632)"
           id="text94"><tspan
             style="fill:#000000;fill-opacity:1;fill-rule:nonzero;stroke:none;font-family:Calibri;font-variant:normal;font-weight:normal;font-size:18;writing-mode:lr;-inkscape-font-specification:Calibri"
             x="0 7.2 19.116 30.114 34.29 38.736 43.902 53.388 59.67 74.052 82.548 89.136"
             y="0"
             sodipodi:role="line"
             id="tspan96">LOD ‘format’</tspan></text>
</g></g><g
       id="g98"><g
         id="g100"
         clip-path="url(#clipPath102)"><text
           transform="matrix(1,0,0,-1,33.24,74.928)"
           id="text106"><tspan
             style="fill:#000000;fill-opacity:1;fill-rule:nonzero;stroke:none;font-family:Calibri;font-variant:normal;font-weight:normal;font-size:18;writing-mode:lr;-inkscape-font-specification:Calibri"
             x="0 9.126 18.252 22.68 31.806 40.932"
             y="0"
             sodipodi:role="line"
             id="tspan108">13,940</tspan></text>
</g></g><g
       id="g110"><g
         id="g112"
         clip-path="url(#clipPath114)"><text
           transform="matrix(1,0,0,-1,37.8,53.328)"
           id="text118"><tspan
             style="fill:#000000;fill-opacity:1;fill-rule:nonzero;stroke:none;font-family:Calibri;font-variant:normal;font-weight:normal;font-size:18;writing-mode:lr;-inkscape-font-specification:Calibri"
             x="0 9.594 18.954 29.376"
             y="0"
             sodipodi:role="line"
             id="tspan120">CKAN</tspan></text>
</g></g><g
       id="g122"><g
         id="g124"
         clip-path="url(#clipPath126)"><text
           transform="matrix(1,0,0,-1,26.52,31.728)"
           id="text130"><tspan
             style="fill:#000000;fill-opacity:1;fill-rule:nonzero;stroke:none;font-family:Calibri;font-variant:normal;font-weight:normal;font-size:18;writing-mode:lr;-inkscape-font-specification:Calibri"
             x="0 5.994 14.958 22.05 31.536 40.986 47.016 54.576"
             y="0"
             sodipodi:role="line"
             id="tspan132">resource</tspan></text>
</g></g><g
       id="g134"><g
         id="g136"
         clip-path="url(#clipPath138)"><text
           transform="matrix(1,0,0,-1,226.15,190.78)"
           id="text142"><tspan
             style="fill:#000000;fill-opacity:1;fill-rule:nonzero;stroke:none;font-family:Calibri;font-variant:normal;font-weight:normal;font-size:18;writing-mode:lr;-inkscape-font-specification:Calibri"
             x="0 9.126 13.554 22.68 31.806 40.932 45.09 50.544 59.616 68.742 73.17 82.296 95.166"
             y="0"
             sodipodi:role="line"
             id="tspan144">2,123 (89,6%)</tspan></text>
</g></g><g
       id="g146"><g
         id="g148"
         clip-path="url(#clipPath150)"><text
           transform="matrix(1,0,0,-1,232.27,169.18)"
           id="text154"><tspan
             style="fill:#000000;fill-opacity:1;fill-rule:nonzero;stroke:none;font-family:Calibri;font-variant:normal;font-weight:normal;font-size:18;writing-mode:lr;-inkscape-font-specification:Calibri"
             x="0 7.434 16.056 25.506 29.736 37.17 46.656 56.106 65.556 74.592 82.152"
             y="0"
             sodipodi:role="line"
             id="tspan156">can connect</tspan></text>
</g></g><g
       id="g158"><g
         id="g160"
         clip-path="url(#clipPath162)"><text
           transform="matrix(1,0,0,-1,250.75,147.58)"
           id="text166"><tspan
             style="fill:#000000;fill-opacity:1;fill-rule:nonzero;stroke:none;font-family:Calibri;font-variant:normal;font-weight:normal;font-size:18;writing-mode:lr;-inkscape-font-specification:Calibri"
             x="0 5.886 15.372 19.44 28.89 38.376 45.252"
             y="0"
             sodipodi:role="line"
             id="tspan168">to host</tspan></text>
</g></g><g
       id="g170"><g
         id="g172"
         clip-path="url(#clipPath174)"><text
           transform="matrix(1,0,0,-1,343.7,248.83)"
           id="text178"><tspan
             style="fill:#000000;fill-opacity:1;fill-rule:nonzero;stroke:none;font-family:Calibri;font-variant:normal;font-weight:normal;font-size:18;writing-mode:lr;-inkscape-font-specification:Calibri"
             x="0 9.126 13.554 22.68 31.806 40.932 45.09 50.544 59.616 68.742 73.17 82.296 95.166"
             y="0"
             sodipodi:role="line"
             id="tspan180">2,001 (84,5%)</tspan></text>
</g></g><g
       id="g182"><g
         id="g184"
         clip-path="url(#clipPath186)"><text
           transform="matrix(1,0,0,-1,342.74,227.23)"
           id="text190"><tspan
             style="fill:#000000;fill-opacity:1;fill-rule:nonzero;stroke:none;font-family:Calibri;font-variant:normal;font-weight:normal;font-size:18;writing-mode:lr;-inkscape-font-specification:Calibri"
             x="0 7.434 16.056 25.506 29.736 39.186 48.582 61.452 70.902 74.988 84.474 93.096"
             y="0"
             sodipodi:role="line"
             id="tspan192">can download</tspan></text>
</g></g><g
       id="g194"><g
         id="g196"
         clip-path="url(#clipPath198)"><text
           transform="matrix(1,0,0,-1,348.74,205.63)"
           id="text202"><tspan
             style="fill:#000000;fill-opacity:1;fill-rule:nonzero;stroke:none;font-family:Calibri;font-variant:normal;font-weight:normal;font-size:18;writing-mode:lr;-inkscape-font-specification:Calibri"
             x="0 5.994 14.994 22.086 31.572 41.076 47.07 54.684 63.648 67.86 73.35 77.49 81.54"
             y="0"
             sodipodi:role="line"
             id="tspan204">resource file</tspan></text>
</g></g><g
       id="g206"><g
         id="g208"
         clip-path="url(#clipPath210)"><text
           transform="matrix(1,0,0,-1,466.99,307.66)"
           id="text214"><tspan
             style="font-size:18px;font-variant:normal;font-weight:normal;writing-mode:lr-tb;fill:#000000;fill-opacity:1;fill-rule:nonzero;stroke:none;font-family:Calibri;-inkscape-font-specification:Calibri"
             sodipodi:role="line"
             id="tspan216"
             x="0"
             y="0">1,719 (72,6%)</tspan></text>
</g></g><g
       id="g218"><g
         id="g220"
         clip-path="url(#clipPath222)"><text
           transform="matrix(1,0,0,-1,470.71,286.06)"
           id="text226"><tspan
             style="fill:#000000;fill-opacity:1;fill-rule:nonzero;stroke:none;font-family:Calibri;font-variant:normal;font-weight:normal;font-size:18;writing-mode:lr;-inkscape-font-specification:Calibri"
             x="0 7.434 16.92 26.28 32.04 41.004 50.4 56.43 60.588 66.618 74.772 84.222"
             y="0"
             sodipodi:role="line"
             id="tspan228">content type</tspan></text>
</g></g><g
       id="g230"><g
         id="g232"
         clip-path="url(#clipPath234)"><text
           transform="matrix(1,0,0,-1,462.07,264.46)"
           id="text238"><tspan
             style="fill:#000000;fill-opacity:1;fill-rule:nonzero;stroke:none;font-family:Calibri;font-variant:normal;font-weight:normal;font-size:18;writing-mode:lr;-inkscape-font-specification:Calibri"
             x="0 9.486 14.976 19.044 24.588 28.674 32.76 41.724 45.936 50.022 57.06 61.164 69.354 78.804 88.164 101.034"
             y="0"
             sodipodi:role="line"
             id="tspan240">of file is known</tspan></text>
</g></g><g
       id="g242"><g
         id="g244"
         clip-path="url(#clipPath246)"><text
           transform="matrix(1,0,0,-1,589.34,364.63)"
           id="text250"><tspan
             style="fill:#000000;fill-opacity:1;fill-rule:nonzero;stroke:none;font-family:Calibri;font-variant:normal;font-weight:normal;font-size:18.024;writing-mode:lr;-inkscape-font-specification:Calibri"
             x="0 9.138168 13.554048 22.692216 31.830384 40.91448 45.096048 50.503248 59.641416 68.779584 73.17744 82.315608 95.130672"
             y="0"
             sodipodi:role="line"
             id="tspan252">1,673 (70,6%)</tspan></text>
</g></g><g
       id="g254"><g
         id="g256"
         clip-path="url(#clipPath258)"><text
           transform="matrix(1,0,0,-1,594.86,343.01)"
           id="text262"><tspan
             style="fill:#000000;fill-opacity:1;fill-rule:nonzero;stroke:none;font-family:Calibri;font-variant:normal;font-weight:normal;font-size:18;writing-mode:lr;-inkscape-font-specification:Calibri"
             x="0 8.622 14.634 22.194 31.644 35.784 43.794 52.758 59.85 63.918 71.37 79.992 89.442"
             y="0"
             sodipodi:role="line"
             id="tspan264">archives can </tspan></text>
</g></g><g
       id="g266"><g
         id="g268"
         clip-path="url(#clipPath270)"><text
           transform="matrix(1,0,0,-1,592.94,321.41)"
           id="text274"><tspan
             style="fill:#000000;fill-opacity:1;fill-rule:nonzero;stroke:none;font-family:Calibri;font-variant:normal;font-weight:normal;font-size:18;writing-mode:lr;-inkscape-font-specification:Calibri"
             x="0 9.45 18.468 22.644 32.094 41.58 51.03 59.652 67.266 74.826 83.79"
             y="0"
             sodipodi:role="line"
             id="tspan276">be unpacked</tspan></text>
</g></g><path
       d="m 478.08,95.88 113.02,0 0,-6 -113.02,0 0,6 z m 0,-9 c -3.31,0 -6,2.686 -6,6 0,3.314 2.69,6 6,6 3.31,0 6,-2.686 6,-6 0,-3.314 -2.69,-6 -6,-6 z m 113.02,12 c 3.32,0 6,-2.686 6,-6 0,-3.314 -2.68,-6 -6,-6 -3.31,0 -6,2.686 -6,6 0,3.314 2.69,6 6,6 z"
       style="fill:#000000;fill-opacity:1;fill-rule:nonzero;stroke:none"
       id="path278" /><path
       d="m 591.4,95.473 -0.28,57.767"
       style="fill:none;stroke:#000000;stroke-opacity:1;stroke-width:6;stroke-linecap:butt;stroke-linejoin:miter;stroke-miterlimit:10;stroke-dasharray:none"
       id="path280" /><path
       d="m 591.12,156.84 108.98,0 0,-6 -108.98,0 0,6 z m 0,-9 c -3.31,0 -6,2.69 -6,6 0,3.31 2.69,6 6,6 3.31,0 6,-2.69 6,-6 0,-3.31 -2.69,-6 -6,-6 z m 108.98,12 c 3.31,0 6,-2.69 6,-6 0,-3.31 -2.69,-6 -6,-6 -3.32,0 -6,2.69 -6,6 0,3.31 2.68,6 6,6 z"
       style="fill:#000000;fill-opacity:1;fill-rule:nonzero;stroke:none"
       id="path282" /><g
       id="g284"><g
         id="g286"
         clip-path="url(#clipPath288)"><text
           transform="matrix(1,0,0,-1,483.02,66.336)"
           id="text292"><tspan
             style="fill:#000000;fill-opacity:1;fill-rule:nonzero;stroke:none;font-family:Calibri;font-variant:normal;font-weight:normal;font-size:18.024;writing-mode:lr;-inkscape-font-specification:Calibri"
             x="0 9.138168 13.554048 22.692216 31.830384 40.91448 45.096048 50.503248 59.641416 68.779584 73.17744 82.315608 95.130672"
             y="0"
             sodipodi:role="line"
             id="tspan294">1,855 (78,3%)</tspan></text>
</g></g><g
       id="g296"><g
         id="g298"
         clip-path="url(#clipPath300)"><text
           transform="matrix(1,0,0,-1,493.58,44.712)"
           id="text304"><tspan
             style="fill:#000000;fill-opacity:1;fill-rule:nonzero;stroke:none;font-family:Calibri;font-variant:normal;font-weight:normal;font-size:18;writing-mode:lr;-inkscape-font-specification:Calibri"
             x="0 9.45 18.072 25.182 29.25 33.39 37.422 44.982 53.946 63.45 70.488"
             y="0"
             sodipodi:role="line"
             id="tspan306">has license</tspan></text>
</g></g><g
       id="g308"><g
         id="g310"
         clip-path="url(#clipPath312)"><text
           transform="matrix(1,0,0,-1,595.32,132.79)"
           id="text316"><tspan
             style="fill:#000000;fill-opacity:1;fill-rule:nonzero;stroke:none;font-family:Calibri;font-variant:normal;font-weight:normal;font-size:18;writing-mode:lr;-inkscape-font-specification:Calibri"
             x="0 9.126 13.554 22.68 31.806 40.932 45.09 50.544 59.616 68.742 73.17 82.296 95.166"
             y="0"
             sodipodi:role="line"
             id="tspan318">1,615 (68,2%)</tspan></text>
</g></g><g
       id="g320"><g
         id="g322"
         clip-path="url(#clipPath324)"><text
           transform="matrix(1,0,0,-1,612.24,111.19)"
           id="text328"><tspan
             style="fill:#000000;fill-opacity:1;fill-rule:nonzero;stroke:none;font-family:Calibri;font-variant:normal;font-weight:normal;font-size:18;writing-mode:lr;-inkscape-font-specification:Calibri"
             x="0 9.45 18.072 25.182 29.25 38.736 48.186 57.204 66.654"
             y="0"
             sodipodi:role="line"
             id="tspan330">has open </tspan></text>
</g></g><g
       id="g332"><g
         id="g334"
         clip-path="url(#clipPath336)"><text
           transform="matrix(1,0,0,-1,620.52,89.592)"
           id="text340"><tspan
             style="fill:#000000;fill-opacity:1;fill-rule:nonzero;stroke:none;font-family:Calibri;font-variant:normal;font-weight:normal;font-size:18.024;writing-mode:lr;-inkscape-font-specification:Calibri"
             x="0 4.073424 8.146848 15.698904 24.674856 34.137456 41.238912"
             y="0"
             sodipodi:role="line"
             id="tspan342">license</tspan></text>
</g></g><g
       id="g344"><g
         id="g346"
         clip-path="url(#clipPath348)"><text
           transform="matrix(1,0,0,-1,838.2,483.17)"
           id="text352"><tspan
             style="fill:#000000;fill-opacity:1;fill-rule:nonzero;stroke:none;font-family:Calibri;font-variant:normal;font-weight:normal;font-size:18;writing-mode:lr;-inkscape-font-specification:Calibri"
             x="0 9.126 18.252 27.378 31.446 36.846 45.972 55.098 59.526 68.652 81.522"
             y="0"
             sodipodi:role="line"
             id="tspan354">891 (37,6%)</tspan></text>
</g></g><g
       id="g356"><g
         id="g358"
         clip-path="url(#clipPath360)"><text
           transform="matrix(1,0,0,-1,850.92,461.57)"
           id="text364"><tspan
             style="fill:#000000;fill-opacity:1;fill-rule:nonzero;stroke:none;font-family:Calibri;font-variant:normal;font-weight:normal;font-size:18;writing-mode:lr;-inkscape-font-specification:Calibri"
             x="0 7.434 16.056 25.506 29.736 33.822 43.308 51.93"
             y="0"
             sodipodi:role="line"
             id="tspan366">can load</tspan></text>
</g></g><g
       id="g368"><g
         id="g370"
         clip-path="url(#clipPath372)"><text
           transform="matrix(1,0,0,-1,836.64,439.97)"
           id="text376"><tspan
             style="fill:#000000;fill-opacity:1;fill-rule:nonzero;stroke:none;font-family:Calibri;font-variant:normal;font-weight:normal;font-size:18.024;writing-mode:lr;-inkscape-font-specification:Calibri"
             x="0 7.047384 16.546032 30.947208 39.92316 43.996584 50.034624 56.325 60.362376 69.824976 73.970496 82.946448"
             y="0"
             sodipodi:role="line"
             id="tspan378">some triples</tspan></text>
</g></g><g
       id="g380"><g
         id="g382"
         clip-path="url(#clipPath384)"><text
           transform="matrix(1,0,0,-1,719.71,426.34)"
           id="text388"><tspan
             style="fill:#000000;fill-opacity:1;fill-rule:nonzero;stroke:none;font-family:Calibri;font-variant:normal;font-weight:normal;font-size:18;writing-mode:lr;-inkscape-font-specification:Calibri"
             x="0 9.126 13.554 22.68 31.806 40.932 45.09 50.544 59.616 68.742 73.17 82.296 95.166"
             y="0"
             sodipodi:role="line"
             id="tspan390">1,203 (50,8%)</tspan></text>
</g></g><g
       id="g392"><g
         id="g394"
         clip-path="url(#clipPath396)"><text
           transform="matrix(1,0,0,-1,708.67,404.74)"
           id="text400"><tspan
             style="fill:#000000;fill-opacity:1;fill-rule:nonzero;stroke:none;font-family:Calibri;font-variant:normal;font-weight:normal;font-size:18;writing-mode:lr;-inkscape-font-specification:Calibri"
             x="0 9.45 18.072 25.182 29.25 36.702 46.188 55.548 61.308 70.272 79.668 85.698 89.856 95.886 104.04 113.49 122.454"
             y="0"
             sodipodi:role="line"
             id="tspan402">has content type </tspan></text>
</g></g><g
       id="g404"><g
         id="g406"
         clip-path="url(#clipPath408)"><text
           transform="matrix(1,0,0,-1,727.75,383.14)"
           id="text412"><tspan
             style="fill:#000000;fill-opacity:1;fill-rule:nonzero;stroke:none;font-family:Calibri;font-variant:normal;font-weight:normal;font-size:18;writing-mode:lr;-inkscape-font-specification:Calibri"
             x="0 8.622 18.072 27.576 31.752 35.838 42.876 46.98 56.466 65.916 74.916"
             y="0"
             sodipodi:role="line"
             id="tspan414">and is open</tspan></text>
</g></g><path
       d="m 828,506.64 107.16,0 0,-6 -107.16,0 0,6 z m 0,-9 c -3.31,0 -6,2.69 -6,6 0,3.31 2.69,6 6,6 3.31,0 6,-2.69 6,-6 0,-3.31 -2.69,-6 -6,-6 z m 107.16,12 c 3.32,0 6,-2.69 6,-6 0,-3.31 -2.68,-6 -6,-6 -3.31,0 -6,2.69 -6,6 0,3.31 2.69,6 6,6 z"
       style="fill:#000000;fill-opacity:1;fill-rule:nonzero;stroke:none"
       id="path416" /><path
       d="M 828.28,445.87 828,503.64"
       style="fill:none;stroke:#000000;stroke-opacity:1;stroke-width:6;stroke-linecap:butt;stroke-linejoin:miter;stroke-miterlimit:10;stroke-dasharray:none"
       id="path418" /></g></svg>